<svg width="14" height="11" viewBox="0 0 14 11" fill="none" xmlns="http://www.w3.org/2000/svg">
<path fill-rule="evenodd" clip-rule="evenodd" d="M14.0009 5.66948C14.0009 5.53005 13.9482 5.39634 13.8544 5.29775C13.7607 5.19915 13.6335 5.14377 13.5009 5.14377H1.70789L4.85489 1.83596C4.90138 1.78709 4.93826 1.72906 4.96342 1.66519C4.98858 1.60133 5.00152 1.53288 5.00152 1.46376C5.00152 1.39463 4.98858 1.32618 4.96342 1.26232C4.93826 1.19846 4.90138 1.14043 4.85489 1.09155C4.80841 1.04267 4.75322 1.0039 4.69248 0.977446C4.63174 0.950993 4.56664 0.937378 4.50089 0.937378C4.43515 0.937378 4.37005 0.950993 4.30931 0.977446C4.24857 1.0039 4.19338 1.04267 4.14689 1.09155L0.146894 5.29727C0.100331 5.34611 0.0633877 5.40412 0.0381812 5.46799C0.0129748 5.53186 0 5.60033 0 5.66948C0 5.73863 0.0129748 5.8071 0.0381812 5.87097C0.0633877 5.93484 0.100331 5.99285 0.146894 6.04169L4.14689 10.2474C4.19338 10.2963 4.24857 10.3351 4.30931 10.3615C4.37005 10.388 4.43515 10.4016 4.50089 10.4016C4.56664 10.4016 4.63174 10.388 4.69248 10.3615C4.75322 10.3351 4.80841 10.2963 4.85489 10.2474C4.90138 10.1985 4.93826 10.1405 4.96342 10.0766C4.98858 10.0128 5.00152 9.94433 5.00152 9.87521C5.00152 9.80608 4.98858 9.73763 4.96342 9.67377C4.93826 9.60991 4.90138 9.55188 4.85489 9.503L1.70789 6.1952H13.5009C13.6335 6.1952 13.7607 6.13981 13.8544 6.04122C13.9482 5.94263 14.0009 5.80891 14.0009 5.66948Z" fill="#A9A9A9"/>
</svg>
