<svg width="20" height="28" viewBox="0 0 20 28" fill="none" xmlns="http://www.w3.org/2000/svg">
<path d="M13.543 2.39619C13.543 2.15 13.4945 1.90622 13.4003 1.67877C13.3061 1.45132 13.168 1.24466 12.9939 1.07057C12.8198 0.896491 12.6132 0.758401 12.3857 0.664188C12.1583 0.569975 11.9145 0.521484 11.6683 0.521484H2.71934C2.22818 0.524497 1.75788 0.720433 1.40986 1.06704C1.06184 1.41364 0.863995 1.88314 0.858984 2.37429C0.853973 2.86543 1.0422 3.33887 1.38307 3.6925C1.72395 4.04613 2.19015 4.25162 2.68115 4.26466V23.2343C2.68018 24.1453 2.95522 25.0352 3.47001 25.7869C3.98481 26.5385 4.71522 27.1165 5.56501 27.4448C6.41481 27.7731 7.34413 27.8363 8.23054 27.626C9.11694 27.4157 9.91886 26.9418 10.5306 26.2668C11.2205 26.9551 12.0941 27.4298 13.0469 27.6343C13.4031 27.7085 13.7659 27.7459 14.1297 27.7461C14.8026 27.7476 15.4692 27.6163 16.0912 27.3597C16.7133 27.1032 17.2786 26.7265 17.7549 26.2511C18.2311 25.7758 18.6089 25.2112 18.8666 24.5896C19.1243 23.968 19.2569 23.3017 19.2567 22.6288C19.2295 21.5933 18.9141 20.5858 18.3461 19.7196L14.6727 12.8925C14.6218 12.7944 14.5445 12.7125 14.4496 12.656C14.3546 12.5995 14.2458 12.5707 14.1353 12.5727C14.0251 12.5732 13.9171 12.6036 13.8229 12.6607C13.7286 12.7178 13.6517 12.7995 13.6003 12.897L11.7075 16.4867V4.26639C12.1971 4.25615 12.6633 4.05473 13.0063 3.70524C13.3493 3.35574 13.5419 2.88589 13.543 2.39619ZM7.19434 26.5324C6.31994 26.5314 5.48164 26.1836 4.86335 25.5653C4.24505 24.947 3.89725 24.1087 3.89624 23.2343V4.26952H10.4924V18.7912C10.4924 18.7912 9.82206 20.0903 9.69708 20.3601V10.188C9.69708 10.0269 9.63307 9.87239 9.51914 9.75845C9.4052 9.64451 9.25067 9.5805 9.08954 9.5805H5.2995C5.2197 9.58046 5.14068 9.59614 5.06695 9.62666C4.99321 9.65717 4.92622 9.70192 4.8698 9.75835C4.81337 9.81477 4.76862 9.88176 4.7381 9.9555C4.70759 10.0292 4.69191 10.1083 4.69195 10.188V22.9805C4.69097 23.522 4.86586 24.0492 5.19031 24.4827C5.51476 24.9163 5.97123 25.2327 6.49103 25.3845C7.01084 25.5363 7.56587 25.5151 8.07262 25.3242C8.57937 25.1334 9.01044 24.7831 9.30096 24.3261C9.41851 24.666 9.57288 24.9919 9.76131 25.2982C9.45312 25.683 9.06247 25.9936 8.61819 26.2072C8.1739 26.4208 7.68731 26.532 7.19434 26.5324ZM8.48199 10.797V22.9805C8.4848 23.1514 8.45357 23.3211 8.39013 23.4797C8.32668 23.6384 8.2323 23.7828 8.11247 23.9047C7.99264 24.0265 7.84976 24.1232 7.69216 24.1893C7.53456 24.2553 7.36539 24.2893 7.19452 24.2893C7.02364 24.2893 6.85447 24.2553 6.69688 24.1893C6.53928 24.1232 6.3964 24.0265 6.27657 23.9047C6.15674 23.7828 6.06235 23.6384 5.99891 23.4797C5.93546 23.3211 5.90424 23.1514 5.90704 22.9805V10.797H8.48199ZM14.1433 14.4728L17.2827 20.3077C17.2869 20.316 17.2915 20.3241 17.2966 20.332C17.7525 21.014 18.0104 21.8091 18.0416 22.6288C18.0425 23.2094 17.9135 23.7829 17.6639 24.3071C17.4144 24.8314 17.0507 25.2932 16.5995 25.6586C16.1419 26.0276 15.6076 26.2896 15.0357 26.4256C14.4639 26.5616 13.8688 26.5681 13.2941 26.4446C12.5861 26.2913 11.9351 25.9431 11.4146 25.4393C10.8942 24.9355 10.525 24.2962 10.3487 23.5936C10.0495 22.3327 10.5917 21.2589 11.167 20.1219L14.1433 14.4728ZM11.6693 3.05443H2.71934C2.62951 3.05989 2.53952 3.04691 2.45489 3.01629C2.37027 2.98567 2.2928 2.93806 2.22727 2.87638C2.16173 2.81471 2.10951 2.74028 2.07381 2.65767C2.03811 2.57506 2.0197 2.48601 2.0197 2.39602C2.0197 2.30603 2.03811 2.21699 2.07381 2.13438C2.10951 2.05177 2.16173 1.97733 2.22727 1.91566C2.2928 1.85398 2.37027 1.80637 2.45489 1.77575C2.53952 1.74513 2.62951 1.73216 2.71934 1.73762H11.6693C11.7592 1.73216 11.8492 1.74513 11.9338 1.77575C12.0184 1.80637 12.0959 1.85398 12.1614 1.91566C12.227 1.97733 12.2792 2.05177 12.3149 2.13438C12.3506 2.21699 12.369 2.30603 12.369 2.39602C12.369 2.48601 12.3506 2.57506 12.3149 2.65767C12.2792 2.74028 12.227 2.81471 12.1614 2.87638C12.0959 2.93806 12.0184 2.98567 11.9338 3.01629C11.8492 3.04691 11.7592 3.05989 11.6693 3.05443Z" fill="#9F938B"></path>
</svg>
